<svg id="SvgjsSvg1006" width="422" height="233" xmlns="http://www.w3.org/2000/svg" version="1.1" xmlns:xlink="http://www.w3.org/1999/xlink" xmlns:svgjs="http://svgjs.com/svgjs"><defs id="SvgjsDefs1007"></defs><g id="SvgjsG1008" transform="translate(146,32)"><path id="SvgjsPath1009" d="M 0 0L 90 0L 90 176L 0 176Z" stroke="#323232" stroke-width="2" fill-opacity="1" fill="#ffffff"></path><g id="SvgjsG1010"><text id="SvgjsText1011" font-family="微软雅黑" text-anchor="middle" font-size="13px" width="56" fill="#323232" font-weight="400" align="middle" anchor="middle" family="微软雅黑" size="13px" weight="400" font-style="" y="78.05" transform="rotate(0)"><tspan id="SvgjsTspan1012" dy="16" x="45"><tspan id="SvgjsTspan1013" style="text-decoration:;">AT89C51</tspan></tspan></text></g></g><g id="SvgjsG1014" transform="translate(33,25)"><path id="SvgjsPath1015" d="M 0 0L 84 0L 84 64L 0 64Z" stroke="#323232" stroke-width="2" fill-opacity="1" fill="#ffffff"></path><g id="SvgjsG1016"><text id="SvgjsText1017" font-family="微软雅黑" text-anchor="middle" font-size="13px" width="31" fill="#323232" font-weight="400" align="middle" anchor="middle" family="微软雅黑" size="13px" weight="400" font-style="" y="22.05" transform="rotate(0)"><tspan id="SvgjsTspan1018" dy="16" x="42"><tspan id="SvgjsTspan1019" style="text-decoration:;">B279</tspan></tspan></text></g></g><g id="SvgjsG1020" transform="translate(25,132)"><path id="SvgjsPath1021" d="M 0 0L 100 0L 100 70L 0 70Z" stroke="#323232" stroke-width="2" fill-opacity="1" fill="#ffffff"></path><g id="SvgjsG1022"><text id="SvgjsText1023" font-family="微软雅黑" text-anchor="middle" font-size="13px" width="52" fill="#323232" font-weight="400" align="middle" anchor="middle" family="微软雅黑" size="13px" weight="400" font-style="" y="25.05" transform="rotate(0)"><tspan id="SvgjsTspan1024" dy="16" x="50"><tspan id="SvgjsTspan1025" style="text-decoration:;">数字扩展</tspan></tspan></text></g></g><g id="SvgjsG1026" transform="translate(297,29)"><path id="SvgjsPath1027" d="M 0 0L 100 0L 100 70L 0 70Z" stroke="#323232" stroke-width="2" fill-opacity="1" fill="#ffffff"></path><g id="SvgjsG1028"><text id="SvgjsText1029" font-family="微软雅黑" text-anchor="middle" font-size="13px" width="52" fill="#323232" font-weight="400" align="middle" anchor="middle" family="微软雅黑" size="13px" weight="400" font-style="" y="25.05" transform="rotate(0)"><tspan id="SvgjsTspan1030" dy="16" x="50"><tspan id="SvgjsTspan1031" style="text-decoration:;">数模转换</tspan></tspan></text></g></g><g id="SvgjsG1032" transform="translate(297,138)"><path id="SvgjsPath1033" d="M 0 0L 100 0L 100 70L 0 70Z" stroke="#323232" stroke-width="2" fill-opacity="1" fill="#ffffff"></path><g id="SvgjsG1034"><text id="SvgjsText1035" font-family="微软雅黑" text-anchor="middle" font-size="13px" width="52" fill="#323232" font-weight="400" align="middle" anchor="middle" family="微软雅黑" size="13px" weight="400" font-style="" y="25.05" transform="rotate(0)"><tspan id="SvgjsTspan1036" dy="16" x="50"><tspan id="SvgjsTspan1037" style="text-decoration:;">温控电路</tspan></tspan></text></g></g><g id="SvgjsG1038"><path id="SvgjsPath1039" d="M236 120L266.5 120L266.5 64L297 64" stroke="#323232" stroke-width="2" fill="none"></path></g><g id="SvgjsG1040"><path id="SvgjsPath1041" d="M347 99L347 118.5L347 118.5L347 138" stroke="#323232" stroke-width="2" fill="none"></path></g><g id="SvgjsG1042"><path id="SvgjsPath1043" d="M117 57L131.5 57L131.5 120L146 120" stroke="#323232" stroke-width="2" fill="none"></path></g><g id="SvgjsG1044"><path id="SvgjsPath1045" d="M125 167L135.5 167L135.5 120L146 120" stroke="#323232" stroke-width="2" fill="none"></path></g></svg>